# 3ds Max Wavefront OBJ Exporter v0.99 - (c)2007 guruware
# File Created: 18.07.2021 01:00:33

#
# object Line001
#

v  -8.9748 -9.5834 -0.0000
v  -6.5647 -9.5927 5.7819
v  -6.5831 -0.0858 5.7743
v  -8.9748 -0.0858 -0.0001
v  -0.7829 -9.6153 8.1556
v  -0.8085 -0.0858 8.1662
v  4.9734 -9.6379 5.7563
v  4.9660 -0.0858 5.7742
v  7.3577 -9.6472 -0.0000
v  7.3578 -0.0858 -0.0001
v  4.9734 -9.6378 -5.7564
v  4.9658 -0.0858 -5.7745
v  -0.7829 -9.6153 -8.1556
v  -0.8086 -0.0858 -8.1663
v  -6.5647 -9.5927 -5.7820
v  -6.5828 -0.0858 -5.7745
v  -11.3252 -112.0710 1.6263
v  -2.4349 -106.5145 1.6263
v  -3.1085 -106.1412 -0.0000
v  -11.5184 -111.3973 -0.0000
v  -10.8588 -113.6973 2.3000
v  -0.8085 -107.4159 2.3000
v  -10.3923 -115.3237 1.6263
v  0.8178 -108.3173 1.6263
v  -10.1991 -115.9973 -0.0000
v  1.4915 -108.6907 -0.0000
v  -10.3923 -115.3237 -1.6264
v  0.8178 -108.3173 -1.6264
v  -10.8588 -113.6973 -2.3000
v  -0.8085 -107.4159 -2.3000
v  -11.3252 -112.0710 -1.6264
v  -2.4349 -106.5145 -1.6264
v  -28.7102 -112.1546 -0.0000
v  -28.7066 -112.8283 1.6263
v  -28.6980 -113.6973 2.3000
v  -28.6894 -115.3237 1.6263
v  -28.6858 -115.9973 -0.0000
v  -28.6894 -115.3237 -1.6264
v  -28.6980 -113.6973 -2.3000
v  -28.7066 -112.8283 -1.6264
v  -47.6072 -114.6289 4.0040
v  -47.6072 -114.0394 3.1367
v  -47.6072 -113.6735 -0.0000
v  -47.6072 -114.0394 -3.1368
v  -47.6072 -114.6289 -4.0041
v  -47.6072 -115.2184 -3.1368
v  -47.6072 -115.5842 -0.0000
v  -47.6072 -115.2184 3.1367
v  -3.9671 -10.9051 3.1586
v  -5.2754 -10.8930 -0.0000
v  -0.8085 -10.9343 4.4669
v  2.3501 -10.9635 3.1586
v  3.6584 -10.9756 -0.0000
v  2.3501 -10.9635 -3.1586
v  -0.8085 -10.9343 -4.4669
v  -3.9671 -10.9051 -3.1586
v  -29.4494 -113.3312 -0.0000
v  -29.4476 -113.7113 3.2589
v  -29.4433 -114.6289 4.6088
v  -29.4390 -115.5464 3.2589
v  -29.4372 -115.9265 -0.0000
v  -29.4390 -115.5464 -3.2590
v  -29.4433 -114.6289 -4.6089
v  -29.4476 -113.7113 -3.2590
v  -46.5372 -113.3312 -0.0000
v  -46.5372 -113.7113 3.2589
v  -46.5372 -114.6289 4.6088
v  -46.5372 -115.5464 3.2589
v  -46.5372 -115.9265 -0.0000
v  -46.5372 -115.5464 -3.2590
v  -46.5372 -114.6289 -4.6089
v  -46.5372 -113.7113 -3.2590
# 72 vertices

vn -0.9233 -0.0009 0.3840
vn -0.9230 -0.0015 0.3847
vn -0.9236 -0.0005 0.3834
vn -0.9239 0.0000 0.3827
vn -0.3809 -0.0013 0.9246
vn 0.0039 -0.0016 1.0000
vn -0.0001 -0.0004 1.0000
vn -0.3827 0.0000 0.9239
vn 0.7087 -0.0008 0.7055
vn 0.7071 -0.0003 0.7071
vn 0.9239 0.0000 0.3827
vn 0.9239 -0.0000 0.3827
vn 0.9239 -0.0000 -0.3827
vn 0.7087 -0.0008 -0.7055
vn 0.7071 -0.0003 -0.7072
vn 0.0039 -0.0016 -1.0000
vn -0.0001 -0.0004 -1.0000
vn -0.3809 -0.0013 -0.9246
vn -0.3827 -0.0000 -0.9239
vn -0.9233 -0.0005 -0.3840
vn -0.9230 -0.0000 -0.3847
vn -0.9236 -0.0009 -0.3835
vn -0.9239 -0.0015 -0.3827
vn -0.1920 0.6359 0.7475
vn -0.3425 0.5480 0.7632
vn -0.4897 0.7834 0.3827
vn -0.2737 0.8767 0.3955
vn 0.0181 -0.0630 0.9979
vn 0.0656 -0.1050 0.9923
vn 0.2009 -0.7006 0.6847
vn 0.4096 -0.6554 0.6346
vn 0.2757 -0.9612 -0.0000
vn 0.5300 -0.8480 -0.0000
vn 0.2009 -0.7006 -0.6847
vn 0.4096 -0.6554 -0.6346
vn 0.1020 -0.3556 -0.9291
vn 0.2028 -0.3245 -0.9239
vn -0.1920 0.6359 -0.7475
vn -0.3425 0.5480 -0.7632
vn -0.2028 0.3245 -0.9239
vn -0.1020 0.3556 -0.9291
vn -0.2737 0.8767 -0.3955
vn -0.4897 0.7834 -0.3827
vn -0.0407 0.9231 0.3824
vn 0.0840 0.7721 0.6299
vn 0.3625 0.3380 0.8686
vn 0.3802 -0.7392 0.5560
vn -0.0011 -0.9983 -0.0587
vn 0.1998 -0.8541 -0.4802
vn 0.0000 -0.3827 -0.9239
vn 0.5926 0.4913 -0.6383
vn 0.0872 0.7819 -0.6173
vn -0.0407 0.9231 -0.3824
vn -1.0000 0.0000 -0.0000
vn -0.9997 -0.0226 -0.0000
vn -0.6525 -0.0224 0.7574
vn -0.7082 -0.0227 0.7057
vn -0.9997 -0.0227 0.0000
vn 0.1128 -0.0221 0.9934
vn -0.0025 -0.0226 0.9997
vn 0.3729 -0.0205 0.9276
vn 0.3823 -0.0207 0.9238
vn 0.9221 -0.0204 0.3865
vn 0.9220 -0.0204 0.3866
vn 0.9236 -0.0206 0.3827
vn 0.9237 -0.0206 0.3827
vn 0.9236 -0.0206 -0.3827
vn 0.9220 -0.0204 -0.3866
vn 0.9221 -0.0204 -0.3865
vn 0.9237 -0.0206 -0.3827
vn 0.3823 -0.0207 -0.9238
vn 0.3729 -0.0205 -0.9276
vn 0.1128 -0.0221 -0.9934
vn -0.0025 -0.0226 -0.9997
vn -0.6525 -0.0224 -0.7574
vn -0.7082 -0.0227 -0.7057
vn -0.3344 -0.9424 0.0012
vn -0.2406 -0.9417 0.2352
vn -0.2379 -0.9424 0.2350
vn -0.3343 -0.9425 0.0004
vn -0.0067 -0.9411 0.3381
vn -0.0035 -0.9421 0.3354
vn 0.2354 -0.9410 0.2433
vn 0.2361 -0.9416 0.2402
vn 0.3375 -0.9413 0.0009
vn 0.3375 -0.9413 0.0003
vn 0.2352 -0.9416 -0.2408
vn 0.2376 -0.9410 -0.2410
vn -0.0065 -0.9421 -0.3353
vn -0.0035 -0.9412 -0.3379
vn -0.2401 -0.9425 -0.2327
vn -0.2395 -0.9418 -0.2360
vn -0.8210 0.5682 0.0562
vn -0.6799 0.7283 0.0853
vn -0.7269 0.6757 0.1230
vn -0.8159 0.5760 0.0504
vn 0.6016 0.6388 0.4796
vn 0.5744 0.6778 0.4589
vn 0.9195 -0.2615 0.2934
vn 0.8280 -0.4626 0.3171
vn 0.9348 -0.2112 0.2855
vn 0.9580 -0.1054 0.2667
vn 0.4521 -0.8634 0.2239
vn -0.0084 -0.9945 -0.1041
vn 0.4806 -0.8710 -0.1018
vn 0.9339 -0.2343 -0.2700
vn 0.9413 -0.2778 -0.1918
vn 0.9269 -0.2103 -0.3107
vn 0.9053 -0.1584 -0.3941
vn 0.5611 0.6400 -0.5250
vn 0.2438 0.8024 -0.5447
vn -0.6976 0.6950 -0.1741
vn -0.2485 0.8947 -0.3711
vn -0.0000 0.9933 0.1158
vn -0.1495 0.8177 0.5558
vn -0.1296 0.8201 0.5574
vn -0.0000 0.8270 0.5622
vn -0.1296 -0.8201 0.5574
vn -0.1538 -0.9260 0.3449
vn 0.0000 -0.9372 0.3488
vn 0.0000 -0.8270 0.5622
vn -0.1525 -0.9883 -0.0000
vn -0.0000 -1.0000 -0.0000
vn -0.1538 -0.9260 -0.3449
vn -0.0000 -0.9372 -0.3488
vn -0.1296 -0.8201 -0.5574
vn -0.0000 -0.8270 -0.5622
vn -0.1296 0.8201 -0.5574
vn -0.1495 0.8177 -0.5558
vn -0.0000 0.8270 -0.5622
vn 0.0000 0.9933 -0.1158
vn -0.3028 0.9466 0.1104
vn -0.3028 0.9466 -0.1104
vn -0.3028 0.7882 -0.5358
vn -0.3109 -0.8907 -0.3317
vn -0.3028 -0.7882 -0.5358
vn -0.3047 -0.9524 -0.0000
vn -0.3109 -0.8907 0.3317
vn -0.3028 -0.7882 0.5358
vn -0.3028 0.7882 0.5358
# 140 vertex normals

o Line001
g Line001
s 1
f 1//1 2//2 3//3 
f 3//3 4//4 1//1 
s 2
f 2//5 5//6 6//7 
f 6//7 3//8 2//5 
f 5//6 7//9 8//10 
f 8//10 6//7 5//6 
f 7//9 9//11 10//12 
f 10//12 8//10 7//9 
s 1
f 9//13 11//14 12//15 
f 12//15 10//13 9//13 
f 12//15 11//14 13//16 
f 13//16 14//17 12//15 
f 14//17 13//16 15//18 
f 15//18 16//19 14//17 
s 2
f 15//20 1//21 4//22 
f 4//22 16//23 15//20 
s 32
f 17//24 18//25 19//26 
f 19//26 20//27 17//24 
f 21//28 22//29 18//25 
f 18//25 17//24 21//28 
f 23//30 24//31 22//29 
f 22//29 21//28 23//30 
f 25//32 26//33 24//31 
f 24//31 23//30 25//32 
f 27//34 28//35 26//33 
f 26//33 25//32 27//34 
f 29//36 30//37 28//35 
f 28//35 27//34 29//36 
s 1
f 31//38 32//39 30//40 
f 30//40 29//41 31//38 
f 20//42 19//43 32//39 
f 32//39 31//38 20//42 
s 32
f 20//27 33//44 34//45 
f 34//45 17//24 20//27 
f 17//24 34//45 35//46 
f 35//46 21//28 17//24 
f 21//28 35//46 36//47 
f 36//47 23//30 21//28 
f 23//30 36//47 37//48 
f 37//48 25//32 23//30 
f 37//48 38//49 27//34 
f 27//34 25//32 37//48 
f 38//49 39//50 29//36 
f 29//36 27//34 38//49 
s 1
f 39//51 40//52 31//38 
f 31//38 29//41 39//51 
f 40//52 33//53 20//42 
f 20//42 31//38 40//52 
f 41//54 42//54 43//54 
f 43//54 44//54 45//54 
f 43//54 45//54 46//54 
f 43//54 46//54 47//54 
f 43//54 47//54 48//54 
f 41//54 43//54 48//54 
s 16
f 19//55 18//56 49//57 
f 49//57 50//58 19//55 
f 18//56 22//59 51//60 
f 51//60 49//57 18//56 
f 22//59 24//61 52//62 
f 52//62 51//60 22//59 
s 2
f 24//63 26//64 53//65 
f 53//65 52//66 24//63 
s 1
f 53//67 26//68 28//69 
f 28//69 54//70 53//67 
s 16
f 54//71 28//72 30//73 
f 30//73 55//74 54//71 
f 55//74 30//73 32//75 
f 32//75 56//76 55//74 
f 56//76 32//75 19//55 
f 19//55 50//58 56//76 
s 4
f 50//77 49//78 2//79 
f 2//79 1//80 50//77 
f 49//78 51//81 5//82 
f 5//82 2//79 49//78 
f 51//81 52//83 7//84 
f 7//84 5//82 51//81 
f 52//83 53//85 9//86 
f 9//86 7//84 52//83 
f 53//85 54//87 11//88 
f 11//88 9//86 53//85 
f 54//87 55//89 13//90 
f 13//90 11//88 54//87 
f 55//89 56//91 15//92 
f 15//92 13//90 55//89 
f 56//91 50//77 1//80 
f 1//80 15//92 56//91 
s 2
f 57//93 58//94 34//95 
f 34//95 33//96 57//93 
s 32
f 58//97 59//98 35//46 
f 35//46 34//45 58//97 
s 1
f 59//99 60//100 36//101 
f 36//101 35//102 59//99 
s 32
f 60//103 61//104 37//48 
f 37//48 36//47 60//103 
f 61//104 62//105 38//49 
f 38//49 37//48 61//104 
s 2
f 62//106 63//107 39//108 
f 39//108 38//109 62//106 
s 1
f 63//110 64//111 40//52 
f 40//52 39//51 63//110 
s 2
f 64//112 57//93 33//96 
f 33//96 40//113 64//112 
s 4
f 65//114 66//114 58//114 
f 58//114 57//114 65//114 
s 8
f 66//115 67//116 59//117 
f 59//117 58//117 66//115 
s 16
f 67//118 68//119 60//120 
f 60//120 59//121 67//118 
f 68//119 69//122 61//123 
f 61//123 60//120 68//119 
f 69//122 70//124 62//125 
f 62//125 61//123 69//122 
f 70//124 71//126 63//127 
f 63//127 62//125 70//124 
s 4
f 71//128 72//129 64//130 
f 64//130 63//130 71//128 
s 8
f 72//131 65//131 57//131 
f 57//131 64//131 72//131 
s off
f 66//132 65//132 43//132 
f 43//132 42//132 66//132 
f 65//133 72//133 44//133 
f 44//133 43//133 65//133 
s 4
f 72//129 71//128 45//134 
f 45//134 44//134 72//129 
s 16
f 71//126 70//124 46//135 
f 46//135 45//136 71//126 
f 70//124 69//122 47//137 
f 47//137 46//135 70//124 
f 69//122 68//119 48//138 
f 48//138 47//137 69//122 
f 68//119 67//118 41//139 
f 41//139 48//138 68//119 
s 8
f 67//116 66//115 42//140 
f 42//140 41//140 67//116 
# 134 faces

